<?xml version="1.0" standalone="no"?><!DOCTYPE svg PUBLIC "-//W3C//DTD SVG 1.1//EN" "http://www.w3.org/Graphics/SVG/1.1/DTD/svg11.dtd"><svg t="1757030535932" class="icon" viewBox="0 0 1418 1024" version="1.1" xmlns="http://www.w3.org/2000/svg" p-id="4512" xmlns:xlink="http://www.w3.org/1999/xlink" width="276.953125" height="200"><path d="M487.131429 1019.611429c-65.828571 0-130.194286-13.165714-190.171429-38.034286-58.514286-24.868571-109.714286-59.977143-155.062857-103.862857-45.348571-45.348571-80.457143-96.548571-103.862857-155.062857C13.165714 662.674286 0 598.308571 0 532.48s13.165714-130.194286 38.034286-190.171429c24.868571-58.514286 59.977143-109.714286 103.862857-155.062857s96.548571-80.457143 155.062857-103.862857c59.977143-24.868571 124.342857-38.034286 190.171429-38.034286s130.194286 13.165714 190.171428 38.034286c58.514286 24.868571 109.714286 59.977143 155.062857 103.862857s80.457143 96.548571 103.862857 155.062857c24.868571 59.977143 38.034286 124.342857 38.034286 190.171429s-13.165714 130.194286-38.034286 190.171429c-24.868571 58.514286-59.977143 109.714286-103.862857 155.062857-45.348571 45.348571-96.548571 80.457143-155.062857 103.862857-61.44 24.868571-124.342857 38.034286-190.171428 38.034286z m0-942.08c-61.44 0-121.417143 11.702857-177.005715 35.108571-54.125714 23.405714-102.4 55.588571-144.822857 98.011429s-74.605714 90.697143-98.011428 144.822857c-23.405714 55.588571-35.108571 114.102857-35.108572 175.542857s11.702857 121.417143 35.108572 177.005714c23.405714 54.125714 55.588571 102.4 98.011428 144.822857s90.697143 74.605714 144.822857 98.011429c55.588571 23.405714 115.565714 35.108571 177.005715 35.108571s121.417143-11.702857 177.005714-35.108571c54.125714-23.405714 102.4-55.588571 144.822857-98.011429 42.422857-42.422857 74.605714-90.697143 98.011429-144.822857 23.405714-55.588571 35.108571-115.565714 35.108571-177.005714S930.377143 409.6 906.971429 354.011429c-23.405714-54.125714-55.588571-102.4-98.011429-144.822858-42.422857-42.422857-90.697143-74.605714-144.822857-98.011428-57.051429-21.942857-115.565714-33.645714-177.005714-33.645714z" p-id="4513"></path><path d="M563.2 538.331429c0-40.96-33.645714-74.605714-74.605714-74.605715s-74.605714 33.645714-74.605715 74.605715c0 10.24 2.925714 20.48 5.851429 30.72-16.091429 17.554286-33.645714 38.034286-51.2 64.365714-36.571429 55.588571-77.531429 143.36-87.771429 258.925714H321.828571c7.314286-84.845714 33.645714-163.84 78.994286-232.594286 14.628571-21.942857 30.72-43.885714 43.885714-59.977142 11.702857 8.777143 26.331429 13.165714 42.422858 13.165714 42.422857 1.462857 76.068571-32.182857 76.068571-74.605714z" p-id="4514"></path><path d="M487.131429 770.925714v-33.645714c114.102857 0 206.262857-92.16 206.262857-206.262857s-92.16-206.262857-206.262857-206.262857-206.262857 92.16-206.262858 206.262857h-33.645714c0-64.365714 24.868571-124.342857 70.217143-169.691429s105.325714-70.217143 169.691429-70.217143 124.342857 24.868571 169.691428 70.217143c45.348571 45.348571 70.217143 105.325714 70.217143 169.691429s-24.868571 124.342857-70.217143 169.691428c-45.348571 45.348571-106.788571 70.217143-169.691428 70.217143z" p-id="4515"></path><path d="M1378.011429 55.588571C1361.92 73.142857 1345.828571 90.697143 1328.274286 106.788571c-2.925714 2.925714-147.748571 21.942857-160.914286 38.034286s111.177143 5.851429 108.251429 8.777143c-19.017143 16.091429-39.497143 30.72-59.977143 43.885714-4.388571 2.925714-136.045714 8.777143-150.674286 23.405715-13.165714 13.165714 87.771429 14.628571 81.92 17.554285-58.514286 30.72-125.805714 55.588571-201.874286 76.068572-49.737143 13.165714-92.16 61.44-125.805714 144.822857-16.091429 39.497143-26.331429 65.828571-30.72 77.531428-2.925714 7.314286-14.628571 10.24-23.405714 7.314286s-14.628571-14.628571-11.702857-23.405714C813.348571 352.548571 906.971429 220.891429 1015.222857 122.88c24.868571-21.942857 58.514286-39.497143 87.771429-45.348571 119.954286-26.331429 197.485714-23.405714 275.017143-21.942858z" fill="#D5D7D9" p-id="4516"></path><path d="M540.46476235 1019.611429c-65.828571 0-130.194286-13.165714-190.171429-38.034286-58.514286-24.868571-109.714286-59.977143-155.062857-103.862857-45.348571-45.348571-80.457143-96.548571-103.862857-155.062857C66.49904735 662.674286 53.33333335 598.308571 53.33333335 532.48s13.165714-130.194286 38.034286-190.171429c24.868571-58.514286 59.977143-109.714286 103.862857-155.062857s96.548571-80.457143 155.062857-103.862857c59.977143-24.868571 124.342857-38.034286 190.171429-38.034286s130.194286 13.165714 190.171428 38.034286c58.514286 24.868571 109.714286 59.977143 155.062857 103.862857s80.457143 96.548571 103.862857 155.062857c24.868571 59.977143 38.034286 124.342857 38.034286 190.171429s-13.165714 130.194286-38.034286 190.171429c-24.868571 58.514286-59.977143 109.714286-103.862857 155.062857-45.348571 45.348571-96.548571 80.457143-155.062857 103.862857-61.44 24.868571-124.342857 38.034286-190.171428 38.034286z m0-942.08c-61.44 0-121.417143 11.702857-177.005715 35.108571-54.125714 23.405714-102.4 55.588571-144.822857 98.011429s-74.605714 90.697143-98.011428 144.822857c-23.405714 55.588571-35.108571 114.102857-35.108572 175.542857s11.702857 121.417143 35.108572 177.005714c23.405714 54.125714 55.588571 102.4 98.011428 144.822857s90.697143 74.605714 144.822857 98.011429c55.588571 23.405714 115.565714 35.108571 177.005715 35.108571s121.417143-11.702857 177.005714-35.108571c54.125714-23.405714 102.4-55.588571 144.822857-98.011429 42.422857-42.422857 74.605714-90.697143 98.011429-144.822857 23.405714-55.588571 35.108571-115.565714 35.108571-177.005714S983.71047635 409.6 960.30476235 354.011429c-23.405714-54.125714-55.588571-102.4-98.011429-144.822858-42.422857-42.422857-90.697143-74.605714-144.822857-98.011428-57.051429-21.942857-115.565714-33.645714-177.005714-33.645714z" fill="#8a8a8a" p-id="4517"></path><path d="M616.53333335 538.331429c0-40.96-33.645714-74.605714-74.605714-74.605715s-74.605714 33.645714-74.605715 74.605715c0 10.24 2.925714 20.48 5.851429 30.72-16.091429 17.554286-33.645714 38.034286-51.2 64.365714-36.571429 55.588571-77.531429 143.36-87.771429 258.925714H375.16190435c7.314286-84.845714 33.645714-163.84 78.994286-232.594286 14.628571-21.942857 30.72-43.885714 43.885714-59.977142 11.702857 8.777143 26.331429 13.165714 42.422858 13.165714 42.422857 1.462857 76.068571-32.182857 76.068571-74.605714z" fill="#8a8a8a" p-id="4518"></path><path d="M540.46476235 770.925714v-33.645714c114.102857 0 206.262857-92.16 206.262857-206.262857s-92.16-206.262857-206.262857-206.262857-206.262857 92.16-206.262858 206.262857h-33.645714c0-64.365714 24.868571-124.342857 70.217143-169.691429s105.325714-70.217143 169.691429-70.217143 124.342857 24.868571 169.691428 70.217143c45.348571 45.348571 70.217143 105.325714 70.217143 169.691429s-24.868571 124.342857-70.217143 169.691428c-45.348571 45.348571-106.788571 70.217143-169.691428 70.217143z" fill="#8a8a8a" p-id="4519"></path><path d="M1378.011429 55.588571C1361.92 73.142857 1345.828571 90.697143 1328.274286 106.788571c-2.925714 2.925714-147.748571 21.942857-160.914286 38.034286s111.177143 5.851429 108.251429 8.777143c-19.017143 16.091429-39.497143 30.72-59.977143 43.885714-4.388571 2.925714-136.045714 8.777143-150.674286 23.405715-13.165714 13.165714 87.771429 14.628571 81.92 17.554285-58.514286 30.72-125.805714 55.588571-201.874286 76.068572-49.737143 13.165714-92.16 61.44-125.805714 144.822857-16.091429 39.497143-26.331429 65.828571-30.72 77.531428-2.925714 7.314286-14.628571 10.24-23.405714 7.314286s-14.628571-14.628571-11.702857-23.405714C813.348571 352.548571 906.971429 220.891429 1015.222857 122.88c24.868571-21.942857 58.514286-39.497143 87.771429-45.348571 119.954286-26.331429 197.485714-23.405714 275.017143-21.942858z" fill="#8FBC8F" p-id="4520"></path></svg>